<mxfile host="app.diagrams.net" modified="2020-08-24T03:29:18.153Z" agent="5.0 (Macintosh; Intel Mac OS X 10_15_6) AppleWebKit/537.36 (KHTML, like Gecko) Chrome/84.0.4147.135 Safari/537.36" etag="1tTVzsxaZ0pn13lSYewL" version="13.6.2" type="github">
  <diagram id="770cJq7aTWCIN4LwM0Am" name="第 1 页">
    <mxGraphModel dx="1426" dy="771" grid="1" gridSize="10" guides="1" tooltips="1" connect="1" arrows="1" fold="1" page="1" pageScale="1" pageWidth="827" pageHeight="1169" math="0" shadow="0">
      <root>
        <mxCell id="0" />
        <mxCell id="1" parent="0" />
        <mxCell id="UqzFI0ZXzINKaCzjfWLW-1" value="" style="rounded=1;whiteSpace=wrap;html=1;" vertex="1" parent="1">
          <mxGeometry x="160" y="150" width="120" height="60" as="geometry" />
        </mxCell>
        <mxCell id="UqzFI0ZXzINKaCzjfWLW-2" value="" style="rounded=1;whiteSpace=wrap;html=1;" vertex="1" parent="1">
          <mxGeometry x="160" y="340" width="320" height="100" as="geometry" />
        </mxCell>
        <mxCell id="UqzFI0ZXzINKaCzjfWLW-3" value="eBPF maps" style="text;html=1;align=center;verticalAlign=middle;resizable=0;points=[];autosize=1;" vertex="1" parent="1">
          <mxGeometry x="160" y="340" width="80" height="20" as="geometry" />
        </mxCell>
        <mxCell id="UqzFI0ZXzINKaCzjfWLW-4" value="lru_maps_mapping" style="rounded=1;whiteSpace=wrap;html=1;" vertex="1" parent="1">
          <mxGeometry x="190" y="375" width="120" height="40" as="geometry" />
        </mxCell>
        <mxCell id="UqzFI0ZXzINKaCzjfWLW-6" value="lru_maps_mapping" style="rounded=1;whiteSpace=wrap;html=1;" vertex="1" parent="1">
          <mxGeometry x="200" y="385" width="120" height="40" as="geometry" />
        </mxCell>
        <mxCell id="UqzFI0ZXzINKaCzjfWLW-8" value="lru_maps_event" style="rounded=1;whiteSpace=wrap;html=1;" vertex="1" parent="1">
          <mxGeometry x="330" y="375" width="120" height="40" as="geometry" />
        </mxCell>
        <mxCell id="UqzFI0ZXzINKaCzjfWLW-13" value="xlb" style="text;html=1;align=center;verticalAlign=middle;resizable=0;points=[];autosize=1;" vertex="1" parent="1">
          <mxGeometry x="160" y="150" width="30" height="20" as="geometry" />
        </mxCell>
        <mxCell id="UqzFI0ZXzINKaCzjfWLW-14" value="" style="rounded=1;whiteSpace=wrap;html=1;" vertex="1" parent="1">
          <mxGeometry x="160" y="230" width="320" height="100" as="geometry" />
        </mxCell>
        <mxCell id="UqzFI0ZXzINKaCzjfWLW-15" value="/sys/fs/bpf" style="text;html=1;align=center;verticalAlign=middle;resizable=0;points=[];autosize=1;" vertex="1" parent="1">
          <mxGeometry x="165" y="230" width="70" height="20" as="geometry" />
        </mxCell>
        <mxCell id="UqzFI0ZXzINKaCzjfWLW-16" value="lru_maps_event" style="rounded=1;whiteSpace=wrap;html=1;" vertex="1" parent="1">
          <mxGeometry x="340" y="260" width="120" height="40" as="geometry" />
        </mxCell>
        <mxCell id="UqzFI0ZXzINKaCzjfWLW-17" value="lru_maps_mapping" style="rounded=1;whiteSpace=wrap;html=1;" vertex="1" parent="1">
          <mxGeometry x="190" y="260" width="120" height="40" as="geometry" />
        </mxCell>
        <mxCell id="UqzFI0ZXzINKaCzjfWLW-18" value="" style="endArrow=none;html=1;dashed=1;" edge="1" parent="1" target="UqzFI0ZXzINKaCzjfWLW-14">
          <mxGeometry width="50" height="50" relative="1" as="geometry">
            <mxPoint x="40" y="280" as="sourcePoint" />
            <mxPoint x="440" y="280" as="targetPoint" />
          </mxGeometry>
        </mxCell>
        <mxCell id="UqzFI0ZXzINKaCzjfWLW-19" value="" style="endArrow=none;html=1;dashed=1;" edge="1" parent="1">
          <mxGeometry width="50" height="50" relative="1" as="geometry">
            <mxPoint x="480" y="280" as="sourcePoint" />
            <mxPoint x="540" y="280.5" as="targetPoint" />
          </mxGeometry>
        </mxCell>
        <mxCell id="UqzFI0ZXzINKaCzjfWLW-20" value="&lt;b&gt;userspace&lt;/b&gt;" style="text;html=1;align=center;verticalAlign=middle;resizable=0;points=[];autosize=1;" vertex="1" parent="1">
          <mxGeometry x="40" y="260" width="70" height="20" as="geometry" />
        </mxCell>
        <mxCell id="UqzFI0ZXzINKaCzjfWLW-21" value="&lt;b&gt;kernel&lt;/b&gt;" style="text;html=1;align=center;verticalAlign=middle;resizable=0;points=[];autosize=1;" vertex="1" parent="1">
          <mxGeometry x="40" y="280" width="50" height="20" as="geometry" />
        </mxCell>
        <mxCell id="UqzFI0ZXzINKaCzjfWLW-23" value="" style="rounded=1;whiteSpace=wrap;html=1;" vertex="1" parent="1">
          <mxGeometry x="360" y="150" width="120" height="60" as="geometry" />
        </mxCell>
        <mxCell id="UqzFI0ZXzINKaCzjfWLW-24" value="xlb-monitor" style="text;html=1;align=center;verticalAlign=middle;resizable=0;points=[];autosize=1;" vertex="1" parent="1">
          <mxGeometry x="360" y="150" width="70" height="20" as="geometry" />
        </mxCell>
        <mxCell id="UqzFI0ZXzINKaCzjfWLW-26" value="" style="endArrow=block;html=1;dashed=1;exitX=0.5;exitY=0;exitDx=0;exitDy=0;endFill=1;" edge="1" parent="1" source="UqzFI0ZXzINKaCzjfWLW-8">
          <mxGeometry width="50" height="50" relative="1" as="geometry">
            <mxPoint x="570" y="360" as="sourcePoint" />
            <mxPoint x="389" y="302" as="targetPoint" />
          </mxGeometry>
        </mxCell>
        <mxCell id="UqzFI0ZXzINKaCzjfWLW-27" value="pin" style="edgeLabel;html=1;align=center;verticalAlign=middle;resizable=0;points=[];" vertex="1" connectable="0" parent="UqzFI0ZXzINKaCzjfWLW-26">
          <mxGeometry x="0.5066" y="-1" relative="1" as="geometry">
            <mxPoint x="-0.25" y="30.009999999999998" as="offset" />
          </mxGeometry>
        </mxCell>
        <mxCell id="UqzFI0ZXzINKaCzjfWLW-43" value="pin" style="edgeLabel;html=1;align=center;verticalAlign=middle;resizable=0;points=[];" vertex="1" connectable="0" parent="UqzFI0ZXzINKaCzjfWLW-26">
          <mxGeometry x="0.5066" y="-1" relative="1" as="geometry">
            <mxPoint x="-0.25" y="140.01" as="offset" />
          </mxGeometry>
        </mxCell>
        <mxCell id="UqzFI0ZXzINKaCzjfWLW-28" value="" style="endArrow=block;html=1;dashed=1;exitX=0.5;exitY=0;exitDx=0;exitDy=0;endFill=1;" edge="1" parent="1">
          <mxGeometry width="50" height="50" relative="1" as="geometry">
            <mxPoint x="260.5" y="373" as="sourcePoint" />
            <mxPoint x="259.5" y="300" as="targetPoint" />
          </mxGeometry>
        </mxCell>
        <mxCell id="UqzFI0ZXzINKaCzjfWLW-29" value="pin" style="edgeLabel;html=1;align=center;verticalAlign=middle;resizable=0;points=[];" vertex="1" connectable="0" parent="UqzFI0ZXzINKaCzjfWLW-28">
          <mxGeometry x="0.5066" y="-1" relative="1" as="geometry">
            <mxPoint x="-0.75" y="32.01" as="offset" />
          </mxGeometry>
        </mxCell>
        <mxCell id="UqzFI0ZXzINKaCzjfWLW-44" value="pin" style="edgeLabel;html=1;align=center;verticalAlign=middle;resizable=0;points=[];" vertex="1" connectable="0" parent="UqzFI0ZXzINKaCzjfWLW-28">
          <mxGeometry x="0.5066" y="-1" relative="1" as="geometry">
            <mxPoint x="-0.75" y="142.01" as="offset" />
          </mxGeometry>
        </mxCell>
        <mxCell id="UqzFI0ZXzINKaCzjfWLW-30" value="" style="endArrow=classic;html=1;dashed=1;exitX=0;exitY=0.5;exitDx=0;exitDy=0;entryX=0;entryY=0.5;entryDx=0;entryDy=0;" edge="1" parent="1" source="UqzFI0ZXzINKaCzjfWLW-1" target="UqzFI0ZXzINKaCzjfWLW-2">
          <mxGeometry width="50" height="50" relative="1" as="geometry">
            <mxPoint x="570" y="360" as="sourcePoint" />
            <mxPoint x="620" y="310" as="targetPoint" />
            <Array as="points">
              <mxPoint x="120" y="180" />
              <mxPoint x="120" y="390" />
            </Array>
          </mxGeometry>
        </mxCell>
        <mxCell id="UqzFI0ZXzINKaCzjfWLW-31" value="load" style="edgeLabel;html=1;align=center;verticalAlign=middle;resizable=0;points=[];" vertex="1" connectable="0" parent="UqzFI0ZXzINKaCzjfWLW-30">
          <mxGeometry x="-0.331" y="1" relative="1" as="geometry">
            <mxPoint as="offset" />
          </mxGeometry>
        </mxCell>
        <mxCell id="UqzFI0ZXzINKaCzjfWLW-32" value="" style="endArrow=classic;html=1;dashed=1;exitX=0.75;exitY=0;exitDx=0;exitDy=0;entryX=1;entryY=0.5;entryDx=0;entryDy=0;" edge="1" parent="1" source="UqzFI0ZXzINKaCzjfWLW-16" target="UqzFI0ZXzINKaCzjfWLW-23">
          <mxGeometry width="50" height="50" relative="1" as="geometry">
            <mxPoint x="570" y="360" as="sourcePoint" />
            <mxPoint x="620" y="310" as="targetPoint" />
            <Array as="points">
              <mxPoint x="430" y="240" />
              <mxPoint x="510" y="240" />
              <mxPoint x="510" y="180" />
            </Array>
          </mxGeometry>
        </mxCell>
        <mxCell id="UqzFI0ZXzINKaCzjfWLW-35" value="poll" style="edgeLabel;html=1;align=center;verticalAlign=middle;resizable=0;points=[];" vertex="1" connectable="0" parent="UqzFI0ZXzINKaCzjfWLW-32">
          <mxGeometry x="0.4286" relative="1" as="geometry">
            <mxPoint as="offset" />
          </mxGeometry>
        </mxCell>
        <mxCell id="UqzFI0ZXzINKaCzjfWLW-36" value="" style="endArrow=classic;html=1;dashed=1;exitX=0;exitY=0.5;exitDx=0;exitDy=0;entryX=0.75;entryY=0;entryDx=0;entryDy=0;" edge="1" parent="1" source="UqzFI0ZXzINKaCzjfWLW-23" target="UqzFI0ZXzINKaCzjfWLW-17">
          <mxGeometry width="50" height="50" relative="1" as="geometry">
            <mxPoint x="570" y="370" as="sourcePoint" />
            <mxPoint x="620" y="320" as="targetPoint" />
            <Array as="points">
              <mxPoint x="310" y="180" />
              <mxPoint x="310" y="240" />
            </Array>
          </mxGeometry>
        </mxCell>
        <mxCell id="UqzFI0ZXzINKaCzjfWLW-37" value="lookup" style="edgeLabel;html=1;align=center;verticalAlign=middle;resizable=0;points=[];" vertex="1" connectable="0" parent="UqzFI0ZXzINKaCzjfWLW-36">
          <mxGeometry x="0.0544" relative="1" as="geometry">
            <mxPoint y="-7" as="offset" />
          </mxGeometry>
        </mxCell>
        <mxCell id="UqzFI0ZXzINKaCzjfWLW-38" value="" style="rounded=1;whiteSpace=wrap;html=1;" vertex="1" parent="1">
          <mxGeometry x="160" y="450" width="320" height="100" as="geometry" />
        </mxCell>
        <mxCell id="UqzFI0ZXzINKaCzjfWLW-39" value="eBPF prog" style="text;html=1;align=center;verticalAlign=middle;resizable=0;points=[];autosize=1;" vertex="1" parent="1">
          <mxGeometry x="165" y="450" width="70" height="20" as="geometry" />
        </mxCell>
        <mxCell id="UqzFI0ZXzINKaCzjfWLW-40" value="xdp-parse" style="rounded=1;whiteSpace=wrap;html=1;" vertex="1" parent="1">
          <mxGeometry x="190" y="485" width="120" height="40" as="geometry" />
        </mxCell>
        <mxCell id="UqzFI0ZXzINKaCzjfWLW-42" value="xdp-balancer" style="rounded=1;whiteSpace=wrap;html=1;" vertex="1" parent="1">
          <mxGeometry x="330" y="485" width="120" height="40" as="geometry" />
        </mxCell>
        <mxCell id="UqzFI0ZXzINKaCzjfWLW-45" value="" style="endArrow=classic;html=1;dashed=1;exitX=0.25;exitY=0;exitDx=0;exitDy=0;entryX=0.333;entryY=0.975;entryDx=0;entryDy=0;entryPerimeter=0;" edge="1" parent="1" source="UqzFI0ZXzINKaCzjfWLW-42" target="UqzFI0ZXzINKaCzjfWLW-6">
          <mxGeometry width="50" height="50" relative="1" as="geometry">
            <mxPoint x="570" y="370" as="sourcePoint" />
            <mxPoint x="620" y="320" as="targetPoint" />
            <Array as="points">
              <mxPoint x="360" y="470" />
              <mxPoint x="240" y="470" />
            </Array>
          </mxGeometry>
        </mxCell>
        <mxCell id="UqzFI0ZXzINKaCzjfWLW-46" value="update pkt cnt" style="edgeLabel;html=1;align=center;verticalAlign=middle;resizable=0;points=[];" vertex="1" connectable="0" parent="UqzFI0ZXzINKaCzjfWLW-45">
          <mxGeometry x="-0.15" y="-1" relative="1" as="geometry">
            <mxPoint as="offset" />
          </mxGeometry>
        </mxCell>
        <mxCell id="UqzFI0ZXzINKaCzjfWLW-47" value="" style="endArrow=classic;html=1;dashed=1;exitX=0.5;exitY=0;exitDx=0;exitDy=0;entryX=0.5;entryY=1;entryDx=0;entryDy=0;" edge="1" parent="1" source="UqzFI0ZXzINKaCzjfWLW-42" target="UqzFI0ZXzINKaCzjfWLW-8">
          <mxGeometry width="50" height="50" relative="1" as="geometry">
            <mxPoint x="570" y="370" as="sourcePoint" />
            <mxPoint x="620" y="320" as="targetPoint" />
          </mxGeometry>
        </mxCell>
        <mxCell id="UqzFI0ZXzINKaCzjfWLW-48" value="new connection" style="edgeLabel;html=1;align=center;verticalAlign=middle;resizable=0;points=[];" vertex="1" connectable="0" parent="UqzFI0ZXzINKaCzjfWLW-47">
          <mxGeometry x="-0.5143" y="-2" relative="1" as="geometry">
            <mxPoint x="3" y="-8" as="offset" />
          </mxGeometry>
        </mxCell>
      </root>
    </mxGraphModel>
  </diagram>
</mxfile>
